<svg fill="currentColor" xmlns="http://www.w3.org/2000/svg" viewBox="0 0 16 16">
    <path d="M15 7.9c.1.1.4.2.5.1.2-.1.3-.3.3-.5v-7c0-.3-.2-.5-.5-.5H.6C.3 0 .1.2.1.5v10.9c0 .3.2.5.5.5l4.4.2c.3 0 .5-.2.5-.5s-.2-.5-.5-.5L1.1 11V1.1h13.8v5.3L12 3.5c-.1-.1-.2-.1-.4-.1s-.3.1-.4.1L6.8 8 5.3 6.6c-.2-.2-.5-.2-.7 0L2.7 8.5c-.2.1-.2.5 0 .7.2.2.5.2.7 0L5 7.6l1.5 1.5c.2.2.5.2.7 0l4.5-4.5L15 7.9z"/>
    <path d="M15.9 11.4L14.5 10s-.1-.1-.2-.1-.2.1-.2.3v.9h-2v-2h.9c.1 0 .1 0 .2-.1s.1-.3 0-.4l-1.4-1.4c-.1-.1-.3-.1-.4 0L10 8.6s-.1.1-.1.2.1.3.2.3h.9v2H9v-.9c.1-.1 0-.2 0-.2-.1-.1-.3-.1-.4 0l-1.4 1.4c-.1.1-.1.3 0 .4l1.4 1.4s.1.1.2.1.2-.1.2-.3v-.9h2v2h-.9c-.1 0-.1 0-.2.1s-.1.3 0 .4l1.4 1.4c.1.1.3.1.3 0l1.5-1.4s.1-.1.1-.2-.1-.3-.2-.3h-1v-2h2v.9c0 .1 0 .1.1.2s.3.1.4 0l1.4-1.4c.1-.2.1-.3 0-.4z"/>
</svg>
